<?xml version="1.0"?>
<svg width="32" height="32" xmlns="http://www.w3.org/2000/svg">

 <g>
  <title>background</title>
  <rect fill="none" id="canvas_background" height="402" width="582" y="-1" x="-1"/>
 </g>
 <g>
  <title>Layer 1</title>
  <path id="Close" fill="#707070" d="m17.459,16.014l8.239,-8.194c0.395,-0.391 0.395,-1.024 0,-1.414c-0.393999,-0.391 -1.034,-0.391 -1.427999,0l-8.232,8.187l-8.308,-8.309c-0.394,-0.395 -1.034,-0.395 -1.428,0c-0.394,0.396 -0.394,1.037 0,1.432l8.302,8.302999l-8.332,8.286001c-0.394,0.390999 -0.394,1.024 0,1.414c0.394,0.391001 1.034,0.391001 1.428,0l8.325,-8.278999l8.275,8.275999c0.394001,0.395 1.034,0.395 1.428001,0c0.393999,-0.396 0.393999,-1.036999 0,-1.431999l-8.269001,-8.27z"/>
 </g>
</svg>